<?xml version="1.0" standalone="no"?>
<!DOCTYPE svg PUBLIC "-//W3C//DTD SVG 20010904//EN"
 "http://www.w3.org/TR/2001/REC-SVG-20010904/DTD/svg10.dtd">
<svg version="1.0" xmlns="http://www.w3.org/2000/svg"
 width="1024.000000pt" height="1024.000000pt" viewBox="0 0 1024.000000 1024.000000"
 preserveAspectRatio="xMidYMid meet">
<metadata>
Created by potrace 1.11, written by Peter Selinger 2001-2013
</metadata>
<g transform="translate(0.000000,1024.000000) scale(0.100000,-0.100000)"
fill="#000000" stroke="none">
<path d="M7638 9343 c7 -3 16 -2 19 1 4 3 -2 6 -13 5 -11 0 -14 -3 -6 -6z"/>
<path d="M7136 9332 c-10 -2 -28 -13 -39 -23 -23 -21 -80 -28 -59 -7 19 19 14
28 -14 28 -15 0 -36 -10 -48 -22 -11 -13 -41 -30 -66 -39 -44 -16 -45 -16 -45
-62 0 -51 2 -48 -45 -70 -50 -24 -73 -44 -65 -57 4 -7 -1 -14 -13 -17 -11 -3
-23 -16 -26 -29 -4 -15 -14 -24 -26 -24 -10 0 -24 -8 -29 -17 -6 -10 -11 -12
-11 -5 0 6 -5 12 -11 12 -6 0 -9 -6 -6 -14 3 -8 -1 -17 -9 -20 -24 -9 -29 -7
-16 6 7 7 12 17 12 24 0 16 -42 6 -53 -13 -4 -7 -16 -13 -25 -13 -21 0 -102
-42 -102 -52 0 -5 11 -8 25 -8 31 0 33 -16 3 -22 -32 -7 -93 -3 -108 7 -7 4
-16 2 -21 -6 -7 -11 -9 -11 -9 -1 0 10 -5 10 -21 1 -17 -9 -19 -13 -8 -20 11
-6 8 -9 -8 -9 -12 0 -27 -9 -33 -20 -6 -11 -17 -20 -25 -20 -8 0 -15 -5 -15
-11 0 -8 12 -10 35 -6 28 5 32 3 23 -7 -7 -7 -20 -11 -30 -8 -13 3 -18 -1 -18
-17 0 -11 -4 -21 -10 -21 -5 0 -10 7 -10 17 0 18 -10 12 -14 -9 -4 -26 -31
-58 -48 -58 -10 0 -18 -7 -18 -15 0 -7 -6 -18 -13 -22 -7 -4 -24 -22 -39 -40
-22 -27 -27 -30 -33 -15 -4 11 2 23 19 35 15 11 26 28 25 40 -1 15 -3 17 -6 6
-2 -9 -15 -21 -28 -27 -14 -7 -25 -16 -25 -22 0 -5 -7 -10 -15 -10 -25 0 -14
-32 15 -43 9 -3 5 -6 -11 -6 -14 -1 -29 -4 -33 -8 -4 -4 -23 -6 -42 -4 -24 2
-36 -2 -40 -13 -3 -9 -15 -16 -25 -16 -10 0 -19 -4 -19 -9 0 -19 -35 -22 -48
-4 -8 12 -15 14 -20 7 -4 -6 -20 -17 -35 -25 -16 -8 -37 -28 -48 -46 l-20 -31
21 5 c11 3 20 9 20 14 0 12 38 49 50 49 6 0 5 -8 -2 -20 -7 -11 -16 -20 -19
-20 -4 0 -24 -16 -45 -35 -21 -19 -43 -35 -50 -35 -17 0 -74 -52 -74 -67 0 -7
-4 -13 -9 -13 -5 0 -17 -7 -25 -16 -15 -14 -16 -14 -17 3 0 15 -2 14 -9 -5
-12 -28 -60 -49 -72 -30 -6 10 -13 7 -28 -12 -11 -14 -20 -27 -20 -30 0 -11
59 -27 84 -23 15 3 26 1 26 -6 0 -6 -9 -11 -20 -11 -21 0 -45 -34 -35 -50 3
-6 0 -10 -7 -10 -8 0 -31 -16 -52 -35 -21 -19 -47 -37 -58 -41 -16 -5 -18 -8
-7 -15 10 -6 10 -9 2 -9 -7 0 -15 -11 -19 -25 -3 -14 -10 -25 -15 -25 -5 0 -9
-7 -9 -15 0 -8 -4 -15 -10 -15 -16 0 -11 39 8 58 9 9 18 28 19 41 2 24 28 50
51 51 25 0 11 18 -19 22 -22 4 -32 0 -35 -11 -12 -39 -32 -67 -58 -79 -29 -15
-51 -7 -26 8 9 6 10 10 3 10 -6 0 -19 -7 -28 -16 -9 -9 -19 -14 -22 -11 -3 3
-12 0 -19 -8 -15 -14 -19 -65 -6 -65 4 0 7 -18 7 -41 0 -29 -6 -44 -19 -51
-15 -8 -16 -12 -5 -19 21 -12 8 -18 -64 -28 -41 -6 -77 -18 -93 -30 -25 -20
-26 -21 -5 -21 12 0 21 -6 21 -15 0 -11 -7 -14 -22 -10 -13 3 -41 -1 -63 -9
-22 -8 -33 -15 -23 -15 19 -1 13 -41 -6 -41 -7 0 -19 -12 -27 -27 -8 -16 -16
-30 -19 -33 -3 -3 -11 -17 -19 -31 -8 -16 -25 -29 -40 -32 -23 -5 -28 -11 -28
-37 0 -32 -25 -59 -55 -60 -10 0 -18 -7 -18 -16 0 -8 -13 -20 -30 -25 -16 -6
-30 -15 -30 -20 0 -5 -3 -8 -7 -7 -13 2 -46 -15 -65 -34 -10 -10 -25 -18 -33
-18 -8 0 -15 -6 -15 -14 0 -11 -9 -13 -35 -10 -30 4 -35 1 -35 -16 0 -11 7
-20 15 -20 24 0 95 -24 95 -32 0 -5 10 -8 21 -8 30 0 99 -21 99 -30 0 -5 15
-10 33 -13 61 -11 180 -46 186 -56 7 -11 186 -71 213 -71 10 0 18 -4 18 -10 0
-5 46 -24 103 -41 56 -18 105 -36 108 -40 3 -5 27 -16 55 -23 81 -24 124 -40
124 -48 0 -5 7 -8 15 -8 8 0 15 -6 15 -14 0 -16 50 -37 128 -56 28 -6 52 -16
52 -20 0 -5 10 -12 23 -15 48 -14 127 -49 127 -57 0 -4 6 -8 14 -8 14 0 158
-61 166 -70 3 -4 15 -13 28 -22 19 -13 20 -16 7 -22 -9 -3 -14 -2 -10 3 6 10
-43 24 -66 19 -8 -2 -15 7 -17 20 -3 18 -10 22 -43 22 -29 0 -39 4 -39 16 0
11 -6 14 -21 9 -14 -5 -19 -3 -15 3 4 6 -2 8 -16 4 -15 -4 -19 -2 -13 7 5 10
2 11 -14 6 -16 -5 -20 -3 -15 8 3 8 -2 17 -12 21 -12 5 -15 2 -11 -13 3 -14 0
-17 -14 -14 -11 3 -19 10 -19 17 0 19 -49 35 -88 29 -33 -6 -35 -4 -24 9 11
14 7 15 -35 12 -27 -2 -40 -1 -30 2 42 13 3 34 -65 34 -20 0 -39 4 -43 10 -3
5 -13 6 -22 3 -11 -4 -14 -3 -9 6 5 8 1 14 -13 18 -12 3 -21 12 -21 19 0 8 -4
14 -10 14 -5 0 -10 -7 -10 -15 0 -9 -9 -15 -21 -15 -18 0 -20 4 -15 25 6 22 3
25 -18 25 -14 0 -27 4 -31 10 -3 5 -12 7 -20 3 -8 -3 -15 0 -15 6 0 6 -11 11
-24 11 -30 0 -86 20 -86 30 0 5 -20 12 -45 16 -25 3 -43 9 -41 13 3 4 -5 8
-17 8 -17 2 -19 0 -7 -7 13 -8 12 -10 -3 -10 -10 0 -20 6 -23 14 -3 8 -25 17
-50 21 -24 3 -47 12 -51 19 -5 7 -39 20 -76 28 -58 13 -67 13 -63 1 4 -9 -5
-7 -25 8 -39 27 -107 43 -124 29 -7 -6 -20 -7 -30 -4 -13 5 -14 9 -3 15 11 7
10 11 -2 19 -23 15 -50 12 -50 -5 0 -25 -50 -18 -72 10 -19 24 -48 34 -48 16
0 -5 -9 -7 -20 -4 -11 3 -17 10 -13 16 4 6 0 8 -10 4 -9 -3 -19 -2 -22 3 -8
13 -55 13 -55 0 0 -17 -22 -11 -41 11 -17 19 -20 20 -34 5 -20 -20 -49 -21
-67 -2 -17 17 -112 38 -133 30 -11 -5 -18 0 -21 13 -5 17 -15 21 -57 22 -29 0
-68 5 -87 11 -19 5 -49 7 -67 4 -25 -5 -34 -2 -39 11 -5 13 -9 14 -15 4 -6
-10 -13 -8 -28 10 -26 29 -75 26 -79 -5 -4 -25 -31 -36 -56 -22 -20 11 -21 28
-1 28 8 0 15 -5 15 -12 0 -6 7 -3 15 8 19 25 19 31 -1 38 -14 5 -15 4 -5 -8 7
-9 8 -17 2 -20 -5 -3 -11 0 -14 6 -4 10 -7 11 -18 1 -7 -7 -19 -13 -26 -13
-22 0 -14 20 12 30 17 6 23 14 18 26 -3 8 -9 12 -12 7 -15 -21 -56 -30 -89
-19 -26 7 -35 7 -42 -3 -6 -10 -9 -8 -15 8 -7 23 -40 29 -49 9 -3 -9 -8 -8
-16 5 -7 11 -18 15 -33 12 -25 -7 -76 40 -54 49 7 2 -17 5 -52 5 -46 1 -62 4
-58 14 3 8 -10 13 -41 14 -25 1 -48 7 -52 13 -7 12 -40 3 -40 -11 0 -5 -12 -9
-27 -8 -25 0 -26 1 -8 10 17 8 16 9 -8 5 -24 -3 -28 0 -24 15 4 15 1 16 -18 9
-19 -7 -22 -6 -18 9 6 23 -25 50 -37 32 -6 -11 -12 -10 -32 3 -14 9 -28 13
-31 10 -4 -4 -13 -1 -21 5 -18 15 -37 6 -30 -14 5 -12 0 -11 -28 2 -49 25 -61
40 -54 68 5 21 3 25 -14 25 -12 0 -18 5 -15 10 4 6 -6 10 -23 10 -15 0 -38 9
-51 21 -12 12 -25 19 -27 16 -11 -10 22 -47 51 -59 l30 -12 -29 -4 c-22 -3
-36 4 -62 29 -19 18 -34 39 -34 46 0 17 -53 30 -58 15 -6 -18 -32 -14 -32 4 0
12 -6 15 -25 10 -16 -4 -32 -1 -40 6 -8 7 -21 19 -30 26 -8 7 -13 17 -10 23 4
5 -5 9 -19 9 -14 0 -28 5 -31 10 -3 6 -12 10 -18 10 -7 0 -6 -4 3 -10 13 -8
12 -10 -2 -10 -10 0 -18 5 -18 10 0 6 -8 10 -18 10 -10 0 -30 6 -45 13 -28 12
-36 27 -16 27 7 0 0 9 -14 20 -30 24 -38 25 -31 5 4 -10 0 -15 -15 -15 -12 0
-24 7 -27 15 -4 8 -13 15 -22 15 -12 0 -13 -3 -4 -12 7 -7 12 -16 12 -20 0 -4
-8 0 -18 10 -10 9 -31 26 -46 37 -16 11 -36 28 -46 38 -9 9 -25 17 -36 16 -47
-5 -56 0 -51 29 2 15 2 21 0 15 -6 -18 -23 -16 -23 2 0 8 -8 15 -18 15 -10 0
-27 7 -39 15 -22 16 -103 17 -103 3 0 -5 7 -8 15 -8 8 0 23 -9 34 -21 22 -24
34 -59 19 -59 -5 0 -12 9 -15 20 -3 11 -17 23 -32 27 -14 3 -32 13 -40 21 -8
8 -26 12 -42 10 -16 -3 -30 -1 -31 4 -2 4 -24 10 -49 13 -26 2 -59 9 -75 15
-24 9 -201 6 -211 -4 -2 -1 7 -23 20 -49 19 -41 27 -48 60 -53 20 -4 40 -11
43 -15 3 -5 14 -9 25 -9 10 0 19 -6 19 -13 0 -7 20 -21 45 -31 25 -11 45 -23
45 -28 0 -4 7 -8 15 -8 8 0 15 -4 15 -9 0 -5 10 -11 22 -13 13 -2 21 -6 18
-10 -3 -4 4 -13 14 -21 12 -9 16 -19 11 -27 -4 -7 -2 -16 5 -20 20 -12 2 -30
-31 -30 -16 0 -29 -4 -29 -10 0 -15 -16 -12 -34 5 -21 21 -48 8 -40 -19 4 -11
10 -26 15 -32 5 -6 0 -17 -11 -27 -25 -21 -25 -42 -1 -75 10 -15 21 -49 24
-77 6 -49 6 -49 -8 -20 -8 17 -14 37 -15 46 0 9 -6 22 -14 28 -12 10 -13 9 -9
-8 4 -15 -1 -20 -19 -23 -22 -3 -22 -4 7 -20 38 -21 26 -23 -22 -3 -19 8 -48
15 -63 15 -16 0 -33 8 -41 20 -14 21 -90 40 -155 40 -19 0 -34 4 -34 9 0 10
-30 24 -38 17 -2 -3 5 -16 16 -30 11 -14 23 -47 27 -73 4 -29 15 -54 28 -66
22 -19 22 -19 -17 -13 -62 10 -86 17 -86 27 0 5 5 9 10 9 6 0 10 5 10 10 0 6
-7 10 -15 10 -8 0 -15 -7 -15 -16 0 -13 -7 -15 -32 -10 -18 4 -35 11 -36 16
-2 6 -8 10 -14 10 -13 0 -48 39 -48 53 0 5 -11 18 -24 28 -15 12 -29 38 -36
69 -7 28 -16 53 -21 56 -5 3 -9 17 -9 32 0 15 -6 47 -14 72 -10 35 -19 46 -41
52 -33 8 -49 2 -41 -18 4 -10 -2 -14 -20 -14 -21 0 -24 -4 -19 -20 5 -15 2
-20 -13 -20 -27 0 -82 -50 -82 -73 0 -13 -5 -17 -16 -13 -12 5 -14 1 -8 -17 4
-12 11 -25 16 -28 6 -4 8 -15 6 -25 -4 -16 -7 -15 -16 8 -9 22 -17 27 -40 25
-35 -2 -33 -28 4 -47 33 -18 30 -27 -6 -22 -18 3 -30 0 -30 -7 0 -6 -7 -11
-15 -11 -8 0 -15 -9 -15 -20 0 -11 7 -20 15 -20 8 0 15 -8 16 -17 4 -69 9 -87
23 -95 9 -5 16 -15 16 -23 0 -16 29 -73 47 -93 22 -24 16 12 -7 41 -11 14 -20
29 -20 33 0 4 9 -1 20 -11 11 -10 20 -24 20 -32 0 -7 5 -13 10 -13 6 0 9 -3 9
-7 -4 -26 3 -43 19 -43 24 0 59 -26 49 -37 -5 -4 -13 0 -18 10 -12 21 -59 23
-59 2 0 -8 9 -15 20 -15 11 0 20 -5 20 -11 0 -5 5 -7 10 -4 12 7 80 -32 80
-46 0 -15 -17 -10 -24 6 -3 8 -10 15 -16 15 -18 0 -10 -22 16 -42 35 -28 22
-35 -15 -8 -17 12 -31 17 -31 12 0 -13 45 -42 65 -42 13 0 14 -4 5 -20 -10
-18 -8 -20 20 -20 16 0 30 -5 30 -11 0 -7 -10 -9 -25 -7 -14 3 -25 2 -25 -3 0
-10 38 -22 49 -14 5 3 12 1 16 -5 3 -5 19 -10 36 -10 19 0 29 -5 29 -15 0 -8
-9 -15 -20 -15 -11 0 -20 -4 -20 -10 0 -10 20 -14 50 -12 31 3 70 -10 70 -24
0 -8 5 -14 11 -14 7 0 9 -10 7 -25 -3 -14 -1 -28 4 -31 6 -4 5 -10 -3 -15 -12
-7 -12 -9 0 -9 7 0 11 -6 8 -14 -3 -8 1 -17 9 -20 9 -3 12 -10 9 -16 -10 -17
21 -40 54 -40 17 0 31 -4 31 -10 0 -5 -10 -10 -22 -10 l-22 0 22 -21 c12 -11
27 -17 32 -14 5 3 19 -17 31 -45 12 -27 28 -50 35 -50 17 0 18 27 2 33 -10 4
-10 6 0 6 20 1 14 31 -7 31 -10 0 -21 6 -24 13 -6 17 60 21 70 4 4 -8 17 -17
28 -22 17 -8 16 -10 -13 -13 -28 -3 -31 -6 -21 -18 6 -8 18 -14 25 -14 8 0 14
-4 14 -10 0 -5 18 -19 40 -30 45 -23 52 -35 15 -26 -18 5 -25 2 -25 -8 0 -8 6
-16 13 -19 6 -2 9 -8 5 -12 -5 -5 -17 2 -28 15 -16 18 -17 25 -8 31 17 11 2
25 -35 34 -17 5 -27 3 -27 -4 0 -6 9 -11 20 -11 11 0 20 -4 20 -10 0 -5 -3
-10 -7 -10 -5 0 -8 -17 -8 -37 0 -35 3 -38 38 -46 22 -5 37 -15 37 -24 0 -8 8
-22 17 -31 16 -16 15 -17 -2 -20 -9 -2 -21 2 -26 9 -4 7 -11 10 -16 6 -4 -5
-1 -12 6 -16 7 -5 10 -14 6 -20 -9 -16 13 -41 36 -41 10 0 22 -7 26 -15 5 -8
20 -16 34 -17 21 -2 25 -6 21 -25 -3 -17 -12 -23 -31 -24 -26 -1 -25 -1 3 -8
17 -3 29 -9 28 -13 -6 -22 -1 -32 8 -18 6 9 5 19 -3 29 -10 11 -9 13 3 9 8 -2
16 -14 18 -25 2 -13 15 -24 35 -31 31 -10 31 -10 5 -11 -14 -1 -29 -7 -31 -13
-3 -8 -6 -6 -6 5 -1 22 -51 24 -51 2 0 -9 9 -15 22 -15 17 0 19 -3 10 -12 -19
-19 4 -49 33 -42 31 8 33 -11 3 -20 -22 -7 -22 -7 -3 -15 12 -5 24 -3 33 6 18
18 37 6 21 -13 -6 -8 -9 -17 -5 -21 3 -3 6 -1 6 5 0 7 7 12 15 12 19 0 19 -7
1 -25 -8 -8 -23 -11 -36 -8 -16 4 -21 3 -16 -5 4 -7 13 -12 21 -12 17 0 45
-27 45 -43 0 -9 -2 -9 -8 -1 -4 6 -17 14 -29 18 -36 11 -18 -20 19 -33 26 -9
29 -13 18 -26 -9 -10 -9 -15 -1 -15 15 0 14 -27 -1 -32 -9 -3 -8 -12 5 -31 9
-14 17 -35 17 -45 0 -10 3 -22 7 -25 3 -4 8 -19 9 -34 2 -15 7 -29 12 -31 5
-1 18 -9 28 -17 16 -13 17 -14 2 -9 -22 8 -23 -10 -2 -35 10 -11 25 -17 38
-14 l21 4 -21 -10 c-35 -16 -38 -31 -6 -31 16 0 32 -3 35 -6 10 -10 -12 -44
-29 -44 -8 0 -12 -5 -8 -11 3 -6 15 -9 25 -6 11 3 19 1 19 -5 0 -5 -9 -12 -20
-15 -20 -5 -28 -23 -10 -23 5 0 12 -16 16 -35 3 -19 10 -35 15 -35 5 0 9 -7 9
-16 0 -9 9 -18 19 -21 22 -6 17 -33 -5 -33 -8 0 -14 -4 -14 -10 0 -5 6 -10 14
-10 8 0 17 -11 20 -25 4 -14 11 -25 16 -25 6 0 10 -8 10 -17 0 -18 41 -73 54
-73 10 0 46 -39 46 -50 0 -5 -4 -10 -10 -10 -20 0 -9 -22 26 -53 l36 -32 -27
-5 -27 -5 21 -24 c12 -14 20 -30 17 -36 -2 -7 0 -18 5 -26 8 -12 10 -12 18 0
8 12 12 12 25 -2 9 -8 16 -19 16 -24 0 -4 13 -14 29 -21 29 -13 51 -60 33 -71
-15 -10 3 -45 37 -72 17 -13 31 -33 31 -46 0 -12 7 -28 15 -37 8 -8 15 -20 15
-26 0 -6 5 -21 12 -33 11 -21 11 -21 19 -2 6 16 8 14 8 -12 1 -18 6 -33 11
-33 6 0 10 -9 10 -20 0 -21 27 -40 58 -40 12 0 22 -9 26 -23 3 -12 14 -31 24
-42 10 -11 27 -35 37 -53 11 -18 25 -30 32 -28 7 3 13 -1 13 -9 0 -8 4 -15 9
-15 9 0 71 -84 71 -98 1 -13 35 -48 53 -55 9 -3 17 -13 17 -22 0 -8 5 -15 10
-15 6 0 10 5 10 11 0 6 17 -11 37 -39 29 -38 40 -47 46 -36 14 25 35 15 54
-24 9 -20 25 -44 35 -53 10 -9 18 -20 18 -25 0 -5 14 -24 30 -42 17 -18 30
-37 30 -43 0 -5 7 -9 15 -9 8 0 15 -6 15 -14 0 -9 7 -12 20 -9 18 5 26 -9 21
-39 0 -4 5 -5 12 -2 17 6 67 -33 67 -52 0 -8 9 -14 20 -14 11 0 20 -6 20 -14
0 -8 7 -16 15 -20 8 -3 15 -11 15 -19 0 -19 89 -57 133 -57 30 0 37 -4 37 -20
0 -11 4 -20 9 -20 18 0 29 -55 15 -75 -13 -17 -15 -17 -39 10 -17 17 -24 33
-19 44 16 39 16 51 0 51 -10 0 -16 -9 -16 -25 0 -39 -42 -34 -61 8 -9 20 -22
33 -36 35 -13 2 -31 14 -42 28 -10 13 -23 24 -28 24 -5 0 -15 9 -23 20 -8 11
-20 20 -28 20 -7 0 -29 16 -49 35 -20 19 -41 35 -46 35 -5 0 -45 36 -88 80
-43 44 -84 80 -91 80 -7 0 -21 14 -30 31 -11 18 -35 37 -58 47 -22 9 -40 21
-40 25 0 11 -62 63 -72 60 -4 -2 -5 3 -3 10 4 11 -47 77 -61 77 -9 0 -35 28
-34 37 1 4 -3 9 -9 11 -6 2 -11 -1 -11 -7 0 -6 -11 -4 -27 5 -16 7 -38 14 -51
14 -15 0 -26 9 -32 26 -15 38 -13 44 18 44 19 0 33 -9 47 -29 25 -38 30 -34 9
7 -8 18 -23 32 -32 32 -9 0 -27 3 -39 6 -19 5 -23 2 -23 -18 0 -31 -10 -41
-27 -27 -17 15 -17 24 1 42 8 8 16 20 17 28 6 30 -62 142 -76 127 -4 -4 -13
-24 -20 -45 -8 -21 -14 -31 -15 -22 0 9 -7 19 -15 23 -9 3 -15 18 -15 39 0 31
-14 57 -32 57 -11 0 -10 -48 2 -55 5 -3 7 -11 4 -19 -6 -15 43 -66 63 -66 9 0
13 -6 9 -15 -4 -10 1 -15 14 -15 14 0 20 -7 20 -24 0 -13 4 -26 9 -28 5 -1 12
-21 16 -43 l7 -40 -26 27 c-14 15 -26 36 -26 47 0 39 -15 28 -17 -12 -1 -23
-3 -49 -5 -57 -2 -11 4 -14 19 -12 18 3 23 -2 25 -20 1 -13 2 -30 4 -38 1 -8
2 -21 3 -27 1 -7 8 -13 16 -13 8 0 15 -8 15 -17 0 -9 3 -13 6 -10 4 4 19 -2
34 -13 16 -11 38 -20 49 -20 14 0 21 -6 21 -18 0 -10 5 -23 12 -30 9 -9 9 -12
1 -12 -7 0 -15 4 -18 10 -3 5 -19 10 -35 10 -19 0 -31 6 -35 19 -6 18 -33 36
-42 27 -2 -2 0 -12 5 -23 5 -10 15 -40 21 -68 14 -58 35 -85 66 -85 25 0 65
-49 65 -80 0 -11 5 -20 10 -20 6 0 10 -17 10 -37 0 -22 9 -49 20 -63 11 -14
20 -33 20 -42 0 -10 5 -18 11 -18 16 0 33 -21 57 -70 23 -47 73 -110 88 -110
5 0 20 -17 34 -38 14 -20 33 -46 42 -56 10 -11 18 -25 18 -32 0 -7 16 -21 35
-30 27 -12 37 -25 45 -56 6 -21 17 -41 25 -44 10 -4 12 -15 8 -35 -5 -26 -3
-29 17 -27 17 2 27 -5 39 -29 17 -35 41 -44 42 -15 0 14 2 14 8 -3 5 -11 18
-28 29 -38 12 -11 18 -26 15 -37 -4 -14 2 -22 20 -29 14 -5 31 -19 39 -29 7
-11 25 -22 38 -24 17 -2 25 -9 24 -21 -2 -13 4 -17 20 -15 13 2 20 -2 18 -9
-1 -7 5 -13 14 -13 11 0 15 -6 11 -20 -3 -11 -1 -18 4 -14 5 3 9 0 9 -5 0 -6
7 -11 15 -11 20 0 95 -40 95 -51 0 -5 12 -15 28 -23 15 -8 42 -28 61 -45 19
-16 55 -40 80 -53 25 -13 51 -28 56 -34 6 -6 26 -21 47 -33 20 -12 39 -28 42
-36 3 -8 12 -15 21 -15 8 0 15 -4 15 -9 0 -5 10 -11 22 -13 14 -2 25 -14 31
-33 13 -39 16 -42 27 -25 6 9 10 10 10 3 0 -23 -24 -26 -38 -5 -11 16 -25 22
-53 22 -32 0 -39 3 -39 20 0 11 5 20 12 20 6 0 -4 13 -22 30 -36 32 -51 38
-46 18 1 -7 1 -10 -1 -5 -3 4 -13 7 -24 7 -10 0 -19 7 -19 15 0 9 -9 15 -25
15 -14 0 -25 5 -25 10 0 6 -7 10 -15 10 -8 0 -15 4 -15 9 0 5 -16 15 -35 22
-19 7 -35 17 -35 21 0 4 -6 8 -13 8 -7 0 -28 18 -46 39 -22 25 -46 42 -67 45
-17 4 -35 13 -38 21 -3 8 -12 15 -21 15 -8 0 -15 5 -15 10 0 6 -7 10 -16 10
-20 0 -44 24 -44 44 0 22 -17 20 -23 -3 -5 -20 21 -60 57 -90 11 -9 31 -28 46
-42 14 -14 38 -29 53 -33 15 -3 27 -11 27 -17 0 -6 20 -31 44 -55 25 -24 49
-51 54 -61 6 -9 16 -17 25 -19 22 -3 67 -35 67 -47 0 -14 70 -77 85 -77 6 0
34 -21 61 -47 68 -64 103 -93 141 -115 17 -10 34 -25 37 -33 3 -8 13 -15 22
-15 17 0 67 -32 99 -64 12 -12 36 -29 55 -40 19 -10 40 -24 45 -31 14 -16 70
-45 90 -45 8 0 23 -8 34 -19 10 -10 49 -34 87 -52 38 -19 76 -41 85 -50 10
-10 30 -20 46 -23 16 -4 42 -18 57 -31 16 -14 34 -25 40 -25 20 0 126 -54 126
-65 0 -5 27 -23 59 -38 59 -27 59 -28 67 -80 4 -29 7 -57 6 -64 -2 -7 6 -9 18
-6 16 4 20 1 20 -20 0 -36 32 -88 50 -82 9 3 19 -4 25 -17 6 -13 25 -27 43
-32 17 -5 32 -15 32 -22 0 -16 31 -34 59 -34 12 0 21 -3 21 -8 0 -11 58 -34
70 -27 5 3 10 -2 10 -12 0 -15 2 -16 10 -3 5 8 11 12 13 10 2 -3 12 -16 21
-30 18 -24 18 -24 13 -3 -3 16 -1 23 9 23 8 0 14 -10 14 -26 0 -19 4 -25 14
-21 8 3 17 1 19 -6 3 -7 9 -1 15 13 l11 25 0 -30 1 -30 77 -1 c47 -1 79 -6 81
-13 2 -6 19 -11 38 -11 19 0 34 -4 34 -10 0 -5 9 -10 20 -10 11 0 20 6 20 13
0 8 2 9 8 1 10 -16 39 -23 113 -29 35 -3 111 -10 169 -16 58 -5 267 -12 465
-14 382 -4 545 -12 545 -26 0 -14 28 -11 34 4 5 9 7 9 12 0 7 -16 44 -17 44
-1 0 7 5 6 13 -4 15 -19 65 -29 70 -14 3 8 14 7 39 -1 43 -16 61 -16 52 -2 -4
8 -1 8 12 1 11 -5 131 -8 289 -6 229 3 271 5 281 19 14 18 44 20 44 2 0 -10
10 -12 33 -9 17 3 34 8 37 11 15 18 56 31 100 31 32 0 49 4 45 10 -4 6 11 11
37 12 24 0 50 1 58 2 8 1 19 11 25 23 8 20 30 29 58 24 4 -1 7 4 6 11 -1 7 1
20 4 28 3 8 8 24 10 35 4 19 4 19 12 1 5 -11 3 -26 -3 -37 -15 -23 -15 -29 -2
-29 6 0 10 6 10 14 0 8 9 18 20 21 21 7 28 35 8 35 -6 0 -9 2 -7 5 3 2 15 2
26 -1 15 -4 23 -16 26 -38 4 -22 4 -19 4 11 -1 46 13 70 34 57 7 -4 23 -8 34
-9 18 0 21 4 17 24 -5 23 -6 24 -13 6 -7 -18 -8 -17 -8 5 -1 20 -3 22 -11 10
-8 -12 -10 -11 -10 8 0 12 9 31 20 42 24 24 28 65 5 56 -8 -3 -15 -2 -15 3 0
16 13 21 27 10 9 -8 12 -27 9 -63 -3 -28 -3 -42 1 -31 3 11 9 23 14 26 6 3 11
23 13 44 2 22 8 41 14 43 6 2 8 -6 5 -20 -5 -23 -5 -23 10 -3 8 11 12 22 7 25
-5 3 -10 16 -13 30 -2 14 -2 19 0 13 4 -10 7 -10 18 0 15 15 13 68 -4 107 -11
24 -11 24 -7 -7 4 -26 2 -31 -10 -26 -11 4 -14 13 -9 27 4 11 7 26 7 33 1 8 6
8 18 1 20 -13 41 -78 33 -106 -3 -12 -1 -22 4 -22 5 0 9 15 9 33 0 49 25 98
49 95 28 -4 25 -31 -5 -39 l-25 -7 27 -1 c15 -1 33 -8 41 -16 13 -13 16 -13
21 1 3 8 2 12 -4 9 -6 -3 -10 -1 -10 5 0 6 -4 8 -10 5 -13 -8 -13 1 1 27 8 15
8 19 0 14 -6 -4 -11 -1 -11 7 0 16 -34 13 -55 -4 -6 -4 -17 -3 -25 3 -12 8
-12 9 3 4 9 -3 17 -1 17 4 0 6 9 10 19 10 27 0 51 10 51 22 0 5 -4 7 -8 4 -4
-2 -7 10 -7 28 1 29 -1 32 -21 28 -22 -4 -49 -53 -37 -66 4 -3 1 -6 -6 -6 -8
0 -10 7 -5 22 3 12 7 36 8 52 2 29 5 31 39 32 39 1 55 9 43 21 -4 4 -12 1 -17
-7 -8 -12 -9 -10 -4 7 6 20 4 21 -25 13 -26 -7 -30 -6 -30 10 0 13 5 17 15 14
25 -10 65 4 59 21 -4 8 -11 15 -16 15 -6 0 -8 -6 -5 -14 4 -10 0 -12 -16 -8
-23 6 -46 30 -46 47 0 6 4 2 10 -8 13 -22 49 -23 49 -1 0 14 3 14 16 3 13 -10
17 -10 24 0 5 9 10 10 14 3 3 -6 2 -13 -4 -17 -14 -9 -12 -22 4 -28 10 -4 12
0 8 15 -3 14 -1 19 6 14 7 -4 12 -15 13 -24 0 -11 2 -13 6 -4 3 7 -2 21 -10
30 -10 11 -13 27 -10 45 5 26 6 26 20 10 13 -16 13 -16 3 5 -12 26 -30 21 -30
-9 0 -10 -5 -19 -11 -19 -16 0 -3 61 18 80 9 8 13 10 9 3 -7 -13 31 -10 43 3
3 4 -2 4 -11 1 -12 -4 -18 -1 -18 9 0 8 8 17 18 21 9 3 39 28 65 55 27 26 55
48 62 48 7 0 37 23 66 51 30 28 67 63 83 78 32 29 96 122 96 139 0 6 6 15 13
19 16 10 46 102 54 165 3 27 9 48 14 48 9 0 49 85 49 104 0 6 9 19 20 29 11 9
20 23 20 31 0 7 13 42 29 77 15 35 34 96 41 134 6 39 16 89 21 112 5 23 9 53
9 67 0 14 5 26 10 26 6 0 10 33 10 80 0 44 -4 80 -8 80 -4 0 -13 57 -20 128
-6 70 -23 174 -37 232 -15 58 -35 148 -46 200 -11 52 -23 97 -27 100 -4 3 -18
38 -31 78 -13 40 -29 79 -36 85 -6 7 -20 38 -30 71 -10 32 -23 63 -29 69 -7 7
-28 44 -47 82 -49 96 -77 145 -95 162 -7 8 -14 24 -14 36 0 39 -57 143 -101
186 -24 22 -47 41 -51 41 -4 0 -8 6 -8 13 0 8 -9 22 -20 32 -11 10 -20 23 -20
29 0 6 -17 27 -38 46 -20 20 -44 48 -51 64 -15 27 -14 28 34 72 27 24 53 44
57 44 4 0 8 6 8 14 0 7 10 21 23 29 40 27 157 142 157 155 0 7 11 17 25 22 14
5 25 14 25 19 0 10 60 85 110 137 17 17 30 36 30 42 0 6 8 17 19 24 10 7 25
27 34 43 8 17 25 40 36 52 12 12 21 28 21 35 0 7 10 29 23 48 13 19 38 65 57
103 19 37 37 67 42 67 9 0 44 79 58 131 6 21 17 39 24 39 8 0 20 25 30 59 9
33 20 61 24 63 6 3 38 111 61 208 27 112 65 245 73 248 4 2 8 13 8 24 0 11 4
37 10 57 18 66 70 356 70 388 0 17 4 33 10 35 5 2 12 40 16 86 4 45 11 82 15
82 5 0 9 65 9 145 0 80 -4 145 -9 145 -4 0 -11 19 -14 41 -3 23 -10 45 -15 48
-16 10 -51 127 -57 188 -7 66 -36 183 -46 183 -4 0 -10 12 -14 28 -9 38 -63
148 -79 161 -7 6 -20 10 -27 8 -8 -2 -11 -2 -6 0 10 7 9 33 -2 33 -6 0 -18 14
-28 30 -9 17 -23 30 -29 30 -7 0 -14 10 -16 23 -2 12 -8 22 -15 22 -6 0 -23
12 -37 28 -24 26 -24 27 -4 27 17 0 11 10 -35 57 -32 32 -57 65 -57 74 0 8
-16 23 -35 32 -19 9 -35 21 -35 27 0 5 -7 7 -15 4 -11 -5 -13 -2 -9 10 5 13 0
16 -24 16 -30 0 -82 38 -82 60 0 12 -36 35 -69 45 -16 5 -21 4 -16 -4 8 -14
-44 -4 -60 11 -6 6 -4 7 8 3 10 -4 17 -2 17 4 0 6 -4 11 -8 11 -5 0 -14 10
-21 23 -13 24 -54 47 -83 47 -10 0 -18 4 -18 8 0 5 -12 15 -26 23 -14 7 -30
23 -34 35 -6 16 -21 24 -49 29 -23 4 -41 11 -41 16 0 5 -27 9 -60 9 -33 0 -60
-4 -60 -10 0 -15 -27 -12 -33 4 -3 8 -21 13 -47 13 -23 0 -46 5 -53 12 -13 13
-57 15 -57 2 0 -5 9 -11 20 -14 11 -3 20 -10 20 -16 0 -15 -47 -14 -54 2 -5
10 -7 10 -12 0 -7 -15 -44 -17 -44 -3 0 6 -9 10 -20 10 -11 0 -20 4 -20 9 0
23 -200 5 -208 -18 -6 -18 -41 -13 -64 8 -24 23 -18 51 12 51 11 0 20 5 20 10
0 6 7 10 16 10 9 0 34 5 56 12 l40 12 -34 17 c-18 10 -43 18 -55 19 -12 0 -23
5 -25 12 -3 8 -38 12 -104 14 -135 3 -133 3 -111 15 33 19 7 27 -100 28 -79 0
-104 -2 -93 -10 11 -8 8 -9 -15 -5 -16 4 -45 9 -62 12 -18 4 -33 13 -33 20 0
17 -10 22 -34 16z m301 -104 c-3 -8 -6 -5 -6 6 -1 11 2 17 5 13 3 -3 4 -12 1
-19z m868 -158 c3 -5 -1 -10 -10 -10 -9 0 -13 5 -10 10 3 6 8 10 10 10 2 0 7
-4 10 -10z m-1532 -57 c-7 -2 -21 -2 -30 0 -10 3 -4 5 12 5 17 0 24 -2 18 -5z
m1515 -20 c2 -9 -7 -13 -27 -13 -21 0 -31 5 -31 16 0 19 51 16 58 -3z m-211
-19 c-3 -3 -12 -4 -19 -1 -8 3 -5 6 6 6 11 1 17 -2 13 -5z m-1477 -73 c-8 -5
-33 -11 -55 -13 -22 -3 -31 -3 -20 0 l20 4 -20 9 c-14 5 -3 8 35 8 35 0 50 -3
40 -8z m-183 -27 c-3 -3 -12 -4 -19 -1 -8 3 -5 6 6 6 11 1 17 -2 13 -5z m2323
-64 c0 -5 -7 -7 -15 -4 -8 4 -15 8 -15 10 0 2 7 4 15 4 8 0 15 -4 15 -10z
m-2035 -90 c-3 -5 -14 -10 -23 -10 -15 0 -15 2 -2 10 20 13 33 13 25 0z
m-1518 -772 c-3 -8 -6 -5 -6 6 -1 11 2 17 5 13 3 -3 4 -12 1 -19z m83 -22 c0
-2 -7 -7 -16 -10 -8 -3 -12 -2 -9 4 6 10 25 14 25 6z m-3347 -23 c-7 -2 -19
-2 -25 0 -7 3 -2 5 12 5 14 0 19 -2 13 -5z m50 -50 c-7 -2 -19 -2 -25 0 -7 3
-2 5 12 5 14 0 19 -2 13 -5z m154 -49 c-3 -3 -12 -4 -19 -1 -8 3 -5 6 6 6 11
1 17 -2 13 -5z m-21 -39 c25 -19 14 -19 -22 0 -16 8 -22 15 -13 15 8 0 24 -7
35 -15z m50 -15 c8 0 14 -7 14 -15 0 -10 10 -15 28 -15 15 0 34 -5 42 -10 11
-7 4 -10 -25 -10 -22 0 -45 4 -51 8 -13 8 -34 47 -33 59 0 4 3 2 6 -4 2 -7 11
-13 19 -13z m-578 -82 c-3 -7 -11 -13 -18 -13 -7 0 -15 6 -17 13 -3 7 4 12 17
12 13 0 20 -5 18 -12z m912 -3 c0 -8 5 -15 12 -15 6 0 9 -2 6 -5 -8 -8 -58 13
-58 25 0 5 9 10 20 10 11 0 20 -7 20 -15z m22 -82 c-3 -16 -11 -23 -27 -23
-16 0 -24 7 -27 23 -4 19 0 22 27 22 27 0 31 -3 27 -22z m25 -5 c-3 -8 -6 -5
-6 6 -1 11 2 17 5 13 3 -3 4 -12 1 -19z m-517 -28 c8 -5 11 -10 5 -10 -5 0
-17 5 -25 10 -8 5 -10 10 -5 10 6 0 17 -5 25 -10z m607 -16 c-3 -3 -12 -4 -19
-1 -8 3 -5 6 6 6 11 1 17 -2 13 -5z m-1977 -35 c0 -5 -7 -9 -15 -9 -8 0 -15 7
-15 15 0 9 6 12 15 9 8 -4 15 -10 15 -15z m2190 -4 c0 -16 -9 -19 -34 -9 -25
9 -19 24 9 24 16 0 25 -6 25 -15z m57 -7 c-3 -8 -6 -5 -6 6 -1 11 2 17 5 13 3
-3 4 -12 1 -19z m-270 -24 c-3 -3 -12 -4 -19 -1 -8 3 -5 6 6 6 11 1 17 -2 13
-5z m93 -29 c0 -8 -2 -15 -4 -15 -2 0 -6 7 -10 15 -3 8 -1 15 4 15 6 0 10 -7
10 -15z m118 -11 c14 -15 14 -16 -3 -13 -10 2 -20 10 -23 17 -5 17 6 15 26 -4z
m272 6 c0 -5 -4 -10 -10 -10 -5 0 -10 5 -10 10 0 6 5 10 10 10 6 0 10 -4 10
-10z m125 -31 c10 -14 1 -21 -19 -13 -9 3 -13 10 -10 15 7 12 21 11 29 -2z
m-2195 -9 c0 -5 -4 -10 -10 -10 -5 0 -10 5 -10 10 0 6 5 10 10 10 6 0 10 -4
10 -10z m2010 0 c8 -5 11 -12 8 -16 -10 -9 -38 3 -38 16 0 12 10 13 30 0z m83
-6 c-10 -6 -23 -10 -30 -7 -23 9 -14 20 17 20 25 0 27 -2 13 -13z m-2563 -4
c0 -5 -4 -10 -10 -10 -5 0 -10 5 -10 10 0 6 5 10 10 10 6 0 10 -4 10 -10z
m2380 -28 c0 -8 -1 -13 -3 -11 -1 2 -9 12 -16 22 -12 15 -12 17 3 11 9 -3 16
-13 16 -22z m-2329 -4 c10 -18 9 -20 -6 -15 -9 4 -19 7 -21 7 -2 0 -4 7 -4 15
0 22 18 18 31 -7z m977 -3 c-3 -3 -9 2 -12 12 -6 14 -5 15 5 6 7 -7 10 -15 7
-18z m1272 -15 c18 -12 2 -12 -25 0 -13 6 -15 9 -5 9 8 0 22 -4 30 -9z m598
-28 c2 -7 -2 -10 -12 -6 -9 3 -16 11 -16 16 0 13 23 5 28 -10z m-2788 -2 c0
-5 -2 -10 -4 -10 -3 0 -8 5 -11 10 -3 6 -1 10 4 10 6 0 11 -4 11 -10z m3860 0
c0 -5 -5 -10 -11 -10 -5 0 -7 5 -4 10 3 6 8 10 11 10 2 0 4 -4 4 -10z m-1333
-6 c-3 -3 -12 -4 -19 -1 -8 3 -5 6 6 6 11 1 17 -2 13 -5z m-1471 -49 c36 -36
54 -43 89 -35 18 4 39 4 46 -1 8 -5 24 -9 37 -9 12 0 22 -4 22 -8 0 -4 16 -14
35 -20 23 -9 32 -18 28 -27 -3 -8 0 -15 6 -15 6 0 11 5 11 11 0 20 20 -2 21
-24 1 -17 2 -18 6 -4 6 21 19 22 27 2 3 -8 11 -15 19 -15 7 0 18 -5 25 -12 15
-15 80 -38 109 -38 12 0 23 -3 25 -8 5 -13 104 -72 120 -72 9 0 18 -6 21 -12
2 -7 28 -24 56 -38 28 -14 51 -28 51 -32 0 -5 8 -8 18 -8 9 0 22 -10 27 -22
13 -29 90 -50 187 -52 67 -1 79 -4 97 -25 12 -13 21 -30 21 -38 0 -7 3 -12 8
-12 37 6 44 -16 6 -24 -16 -3 -28 0 -31 9 -7 19 -49 18 -57 -1 -3 -8 -14 -15
-25 -15 -11 0 -26 7 -35 15 -17 17 -46 20 -46 5 0 -5 -9 -10 -20 -10 -25 0
-25 -4 -1 -38 23 -33 36 -83 20 -80 -6 2 -12 -12 -14 -30 -2 -30 0 -33 22 -30
24 3 25 2 28 -80 2 -46 1 -82 -2 -79 -2 3 -5 9 -6 14 -2 15 -70 83 -84 83 -7
0 -13 8 -13 18 0 11 -10 27 -21 38 -12 10 -26 30 -32 44 -9 22 -11 23 -15 6
-2 -10 0 -21 5 -25 6 -3 15 -28 22 -56 14 -55 49 -125 69 -138 6 -4 12 -13 12
-19 0 -5 14 -28 31 -49 17 -22 32 -50 33 -63 0 -13 5 -22 9 -19 5 3 11 -4 14
-16 3 -12 9 -21 13 -21 5 0 12 -10 15 -22 4 -13 16 -32 26 -43 43 -44 69 -81
68 -95 -1 -9 -3 -8 -6 4 -4 15 -7 16 -14 5 -8 -11 -9 -9 -7 6 2 12 -2 19 -10
17 -8 -1 -11 2 -7 7 3 6 -4 15 -15 21 -11 6 -20 16 -20 23 0 7 -16 27 -35 46
-19 19 -35 39 -35 45 -1 31 -68 136 -86 136 -5 0 -19 18 -32 40 -12 22 -27 40
-32 40 -6 0 -10 9 -10 20 0 21 -16 55 -37 78 -7 7 -13 18 -13 23 0 5 -7 9 -15
9 -8 0 -15 3 -15 8 0 4 -18 27 -40 52 -22 25 -40 48 -40 53 0 4 -6 7 -12 7 -7
0 -30 18 -51 40 -20 22 -41 40 -45 40 -4 0 -13 9 -20 20 -7 11 -21 20 -32 20
-10 0 -23 6 -27 14 -4 7 -27 25 -50 40 -24 14 -43 33 -43 41 0 8 -7 15 -15 15
-8 0 -15 6 -15 14 0 8 -13 26 -30 39 -16 14 -30 33 -30 41 0 10 -6 13 -15 10
-8 -4 -15 -1 -15 5 0 6 -7 11 -15 11 -9 0 -18 7 -21 15 -4 8 -11 15 -18 15 -6
0 -18 9 -26 21 -26 36 -42 55 -34 39 7 -13 5 -13 -9 -1 -9 7 -17 20 -17 27 0
8 -5 14 -12 14 -26 0 -119 122 -117 154 0 6 3 5 6 -2 3 -7 16 -24 29 -37z
m2099 5 c3 -5 1 -10 -4 -10 -6 0 -11 5 -11 10 0 6 2 10 4 10 3 0 8 -4 11 -10z
m-2817 -25 c-3 -3 -9 2 -12 12 -6 14 -5 15 5 6 7 -7 10 -15 7 -18z m-231 -11
c-3 -3 -12 -4 -19 -1 -8 3 -5 6 6 6 11 1 17 -2 13 -5z m1656 -1 c-7 -2 -19 -2
-25 0 -7 3 -2 5 12 5 14 0 19 -2 13 -5z m1474 1 c-3 -3 -12 -4 -19 -1 -8 3 -5
6 6 6 11 1 17 -2 13 -5z m-3183 -30 c4 -10 1 -14 -6 -12 -15 5 -23 28 -10 28
5 0 13 -7 16 -16z m2746 6 c0 -5 -4 -10 -10 -10 -5 0 -10 5 -10 10 0 6 5 10
10 10 6 0 10 -4 10 -10z m183 -17 c-7 -2 -19 -2 -25 0 -7 3 -2 5 12 5 14 0 19
-2 13 -5z m-2799 -24 c26 -21 34 -39 17 -39 -5 0 -13 9 -16 20 -4 12 -15 20
-28 20 -12 0 -29 5 -37 10 -12 8 -9 10 11 10 15 0 38 -9 53 -21z m3453 -15
c-3 -3 -12 -4 -19 -1 -8 3 -5 6 6 6 11 1 17 -2 13 -5z m-1580 -30 c-3 -3 -12
-4 -19 -1 -8 3 -5 6 6 6 11 1 17 -2 13 -5z m1948 -24 c3 -6 -1 -7 -9 -4 -18 7
-21 14 -7 14 6 0 13 -4 16 -10z m-3866 -16 c17 -4 31 -13 31 -20 0 -8 18 -22
41 -30 29 -12 37 -19 27 -25 -19 -12 -40 -11 -32 2 5 8 -6 10 -35 7 -22 -2
-41 0 -41 4 0 5 7 8 15 8 32 0 6 31 -40 48 -34 12 -14 15 34 6z m165 -135 c17
-16 39 -29 49 -29 11 0 17 -8 17 -25 0 -20 -5 -25 -26 -25 -23 0 -25 3 -20 25
4 17 2 25 -6 25 -24 1 -58 38 -57 62 0 13 3 17 6 9 3 -7 20 -26 37 -42z m177
41 c5 0 9 -4 9 -10 0 -16 -37 -11 -44 6 -5 12 -2 15 10 10 8 -3 20 -6 25 -6z
m-46 -30 c13 -6 15 -9 5 -9 -8 0 -22 4 -30 9 -18 12 -2 12 25 0z m532 4 c-3
-3 -12 -4 -19 -1 -8 3 -5 6 6 6 11 1 17 -2 13 -5z m-560 -86 c-3 -8 -6 -5 -6
6 -1 11 2 17 5 13 3 -3 4 -12 1 -19z m3393 -18 c0 -5 -5 -10 -11 -10 -5 0 -7
5 -4 10 3 6 8 10 11 10 2 0 4 -4 4 -10z m37 4 c-3 -3 -12 -4 -19 -1 -8 3 -5 6
6 6 11 1 17 -2 13 -5z m-3332 -14 c3 -5 1 -10 -4 -10 -6 0 -11 5 -11 10 0 6 2
10 4 10 3 0 8 -4 11 -10z m-105 -14 c0 -6 14 -22 30 -35 17 -13 30 -29 30 -36
0 -8 14 -27 31 -44 l31 -31 -36 0 c-24 0 -36 5 -36 14 0 26 -56 76 -87 76 -15
0 -35 5 -43 10 -10 7 1 8 37 6 41 -3 50 -1 46 10 -3 8 -13 14 -22 14 -9 1 -29
7 -46 14 l-30 14 48 0 c28 0 47 -5 47 -12z m3500 -26 c0 -5 -4 -10 -10 -10 -5
0 -10 5 -10 10 0 6 5 10 10 10 6 0 10 -4 10 -10z m-3223 -36 c-3 -3 -12 -4
-19 -1 -8 3 -5 6 6 6 11 1 17 -2 13 -5z m4366 -36 l6 -20 -20 20 c-23 25 -24
33 -5 26 8 -3 16 -15 19 -26z m-3868 11 c11 -16 1 -19 -13 -3 -7 8 -8 14 -3
14 5 0 13 -5 16 -11z m1097 -49 c2 1 11 -1 21 -4 9 -3 24 -8 32 -11 8 -2 12
-11 9 -19 -7 -17 -54 -28 -54 -12 0 19 -60 47 -86 40 -31 -8 -32 14 -1 25 14
6 31 4 49 -5 15 -8 29 -14 30 -14z m-1705 -16 c-3 -3 -12 -4 -19 -1 -8 3 -5 6
6 6 11 1 17 -2 13 -5z m4875 -84 c5 0 17 -7 26 -16 15 -15 14 -16 -8 -9 -29 9
-52 30 -42 39 4 4 8 2 10 -3 2 -6 8 -11 14 -11z m-2852 -5 c0 -9 9 -15 24 -15
32 0 57 -10 51 -20 -3 -4 4 -10 15 -13 11 -3 20 -1 20 4 0 5 12 4 27 -2 15 -5
36 -8 48 -5 11 3 27 1 35 -4 10 -7 -10 -10 -62 -10 -67 0 -80 3 -90 20 -15 23
-38 27 -38 5 0 -17 -45 -21 -55 -5 -3 5 -12 7 -19 4 -8 -3 -17 -1 -20 5 -4 6
-13 8 -21 4 -10 -3 -15 1 -15 14 0 28 8 33 57 33 32 0 43 -4 43 -15z m306 -36
c22 -18 16 -31 -8 -18 -13 7 -52 13 -87 13 -56 0 -61 1 -45 14 22 16 117 10
140 -9z m2784 -59 c0 -5 -4 -10 -10 -10 -5 0 -10 5 -10 10 0 6 5 10 10 10 6 0
10 -4 10 -10z m-5000 -42 c0 -6 -10 -8 -22 -4 -13 3 -32 6 -43 6 -14 0 -16 3
-7 8 16 11 72 3 72 -10z m16 -32 c18 -19 18 -26 -1 -26 -8 0 -15 5 -15 10 0 6
-9 10 -20 10 -11 0 -20 5 -20 10 0 15 39 12 56 -4z m-4 -56 c12 -11 18 -23 14
-27 -4 -4 -12 0 -17 10 -6 9 -19 17 -29 17 -11 0 -20 5 -20 10 0 17 30 11 52
-10z m-52 -20 c0 -5 9 -10 19 -10 11 0 23 -4 26 -10 9 -14 -39 -12 -53 2 -15
15 -16 28 -2 28 6 0 10 -4 10 -10z m1680 -13 c10 -4 8 -6 -7 -6 -16 -1 -23 5
-23 17 0 10 3 13 8 6 4 -6 14 -14 22 -17z m72 -17 c10 0 18 -4 18 -10 0 -15
-27 -12 -44 6 -9 8 -16 18 -16 22 0 3 5 1 12 -6 7 -7 20 -12 30 -12z m843 8
c25 -7 45 -15 45 -18 0 -8 -83 1 -95 11 -6 4 -17 4 -24 0 -10 -7 -8 -10 8 -16
13 -4 21 -9 18 -11 -6 -7 -67 17 -67 26 0 8 22 15 57 19 7 0 33 -4 58 -11z
m-295 -58 c13 -11 18 -20 12 -20 -10 0 -42 27 -42 36 0 8 7 4 30 -16z m350 0
c0 -5 -4 -10 -10 -10 -5 0 -10 5 -10 10 0 6 5 10 10 10 6 0 10 -4 10 -10z
m-2510 -50 c0 -13 -11 -13 -30 0 -12 8 -11 10 8 10 12 0 22 -4 22 -10z m1627
-6 c-3 -3 -12 -4 -19 -1 -8 3 -5 6 6 6 11 1 17 -2 13 -5z m1278 -34 c3 -5 2
-10 -4 -10 -5 0 -13 5 -16 10 -3 6 -2 10 4 10 5 0 13 -4 16 -10z m-695 -35 c0
-14 -6 -25 -13 -25 -20 0 -25 9 -20 31 8 28 33 24 33 -6z m-2217 -22 c-7 -2
-21 -2 -30 0 -10 3 -4 5 12 5 17 0 24 -2 18 -5z m1664 -15 c-3 -8 -6 -5 -6 6
-1 11 2 17 5 13 3 -3 4 -12 1 -19z m718 -18 c3 -5 2 -10 -4 -10 -5 0 -13 5
-16 10 -3 6 -2 10 4 10 5 0 13 -4 16 -10z m273 -18 c5 -16 -17 -15 -48 3 l-25
14 34 -2 c19 -1 36 -8 39 -15z m700 -67 c3 -3 -9 -5 -26 -5 -17 0 -33 4 -37 9
-5 10 53 6 63 -4z m-1906 -33 c23 -33 24 -38 9 -38 -12 0 -17 6 -14 17 3 11
-3 19 -15 23 -11 4 -26 13 -32 21 -10 12 -9 15 6 15 11 0 31 -17 46 -38z m831
-16 c4 -10 1 -13 -9 -9 -7 3 -14 9 -14 14 0 14 17 10 23 -5z m737 4 c0 -5 -4
-10 -10 -10 -5 0 -10 5 -10 10 0 6 5 10 10 10 6 0 10 -4 10 -10z m117 -106
c-3 -3 -12 -4 -19 -1 -8 3 -5 6 6 6 11 1 17 -2 13 -5z m393 -139 c0 -8 -4 -15
-10 -15 -5 0 -10 7 -10 15 0 8 5 15 10 15 6 0 10 -7 10 -15z m-1737 -86 c4
-16 3 -18 -8 -9 -7 6 -15 20 -18 31 -4 16 -3 18 8 9 7 -6 15 -20 18 -31z
m1752 -39 c3 -5 -4 -6 -15 -3 -11 3 -22 9 -25 13 -3 5 4 6 15 3 11 -3 22 -9
25 -13z m-1625 -75 c11 -4 20 -13 20 -21 0 -8 6 -14 14 -14 21 0 79 -58 71
-70 -4 -6 1 -18 11 -25 11 -8 14 -15 8 -15 -15 0 -39 29 -31 37 10 9 -12 44
-26 41 -19 -4 -57 21 -57 38 0 8 -8 18 -17 21 -20 8 -52 43 -53 57 0 5 9 -3
20 -17 11 -14 29 -29 40 -32z m-50 -32 c0 -6 5 -15 12 -19 7 -5 8 -3 3 6 -5 8
5 4 22 -8 17 -12 34 -22 38 -22 7 0 53 -48 64 -67 6 -11 34 -20 69 -22 6 -1
12 -8 12 -16 0 -9 7 -18 15 -21 8 -4 13 -10 10 -14 -3 -4 2 -13 10 -20 8 -7
15 -22 14 -34 0 -17 -2 -18 -7 -4 -9 21 -48 51 -87 66 -17 7 -36 25 -44 42 -7
17 -17 28 -21 25 -5 -3 -11 -1 -15 5 -3 5 -15 10 -26 10 -10 0 -19 7 -19 15 0
8 -6 15 -12 15 -13 1 -79 79 -87 102 -2 6 8 2 22 -8 15 -10 27 -24 27 -31z
m2314 32 c-4 -8 -12 -15 -20 -15 -8 0 -14 -5 -14 -12 0 -6 -3 -9 -6 -6 -3 4
-1 16 6 27 12 24 43 29 34 6z m-1844 -11 c0 -2 -7 -4 -15 -4 -8 0 -15 4 -15
10 0 5 7 7 15 4 8 -4 15 -8 15 -10z m1317 10 c-3 -3 -12 -4 -19 -1 -8 3 -5 6
6 6 11 1 17 -2 13 -5z m873 -64 c0 -5 -12 -10 -27 -9 -25 0 -26 1 -8 9 27 12
35 12 35 0z m-4280 -21 c0 -14 -17 -10 -23 5 -4 10 -1 13 9 9 7 -3 14 -9 14
-14z m3884 -24 c-4 -8 -8 -15 -10 -15 -2 0 -4 7 -4 15 0 8 4 15 10 15 5 0 7
-7 4 -15z m-804 -131 c0 -8 -5 -12 -10 -9 -6 4 -8 11 -5 16 9 14 15 11 15 -7z
m-1145 -72 c-9 -9 -35 8 -35 24 0 16 2 16 20 -1 11 -10 18 -20 15 -23z m50
-23 c9 -14 -4 -27 -13 -13 -4 6 -14 14 -22 17 -10 4 -8 6 7 6 12 1 25 -4 28
-10z m115 -79 c0 -5 9 -10 21 -10 11 0 17 -4 14 -10 -8 -13 24 -60 40 -60 7 0
15 -5 17 -12 3 -7 23 -12 46 -12 23 -1 42 -5 42 -11 0 -5 4 -4 9 4 5 7 14 10
20 7 6 -4 9 -11 6 -16 -3 -4 9 -13 26 -19 18 -6 41 -21 53 -34 12 -13 28 -21
35 -19 8 3 18 -3 23 -12 5 -9 13 -14 18 -11 20 12 85 -38 74 -57 -4 -7 -4 -10
1 -6 8 8 75 -56 75 -72 0 -6 5 -10 10 -10 6 0 10 -4 10 -10 0 -14 -33 1 -48
22 -7 10 -24 18 -38 18 -15 0 -24 6 -24 15 0 10 -10 15 -30 15 -19 0 -30 -5
-30 -14 0 -23 -15 -27 -36 -8 -26 22 -111 63 -139 66 -5 1 -10 11 -9 23 0 12
-2 20 -6 18 -3 -2 -12 0 -20 6 -13 7 -13 9 0 9 25 1 -11 20 -37 20 -14 0 -23
6 -23 15 0 8 -5 15 -10 15 -6 0 -32 22 -58 49 -26 27 -57 52 -69 56 -24 7 -27
13 -17 39 7 17 54 22 54 6z m2740 0 c0 -5 -7 -10 -15 -10 -8 0 -15 5 -15 10 0
6 7 10 15 10 8 0 15 -4 15 -10z m-767 -17 c-7 -2 -19 -2 -25 0 -7 3 -2 5 12 5
14 0 19 -2 13 -5z m-1135 -118 c-3 -3 -9 2 -12 12 -6 14 -5 15 5 6 7 -7 10
-15 7 -18z m417 -125 c3 -6 -1 -7 -9 -4 -18 7 -21 14 -7 14 6 0 13 -4 16 -10z
m-70 -10 c3 -6 -1 -7 -9 -4 -18 7 -21 14 -7 14 6 0 13 -4 16 -10z m-720 -80
c3 -5 1 -10 -4 -10 -6 0 -11 5 -11 10 0 6 2 10 4 10 3 0 8 -4 11 -10z m895
-98 c0 -15 -2 -15 -10 -2 -13 20 -13 33 0 25 6 -3 10 -14 10 -23z m-724 -74
c-14 -10 -23 -2 -28 27 l-5 25 21 -22 c13 -14 17 -26 12 -30z m981 20 c-3 -8
-6 -5 -6 6 -1 11 2 17 5 13 3 -3 4 -12 1 -19z m954 -1 c-10 -9 -11 -8 -5 6 3
10 9 15 12 12 3 -3 0 -11 -7 -18z m63 7 c3 -8 2 -12 -4 -9 -6 3 -10 10 -10 16
0 14 7 11 14 -7z m-4218 -54 c19 0 24 -5 24 -24 0 -35 -39 -23 -67 21 -29 43
-30 68 -2 31 13 -17 30 -28 45 -28z m2380 -60 c12 0 32 -11 45 -25 13 -13 30
-25 37 -25 14 0 16 -16 2 -25 -5 -3 -8 -11 -6 -18 1 -7 1 -9 -1 -4 -3 4 -10 7
-18 7 -25 0 -105 41 -115 60 -16 31 -12 43 13 36 12 -3 32 -6 43 -6z m-2316
-21 c0 -6 10 -19 22 -28 21 -17 18 -41 -4 -41 -6 0 -8 3 -5 7 4 3 1 13 -7 22
-18 21 -32 66 -17 57 6 -4 11 -12 11 -17z m-160 -29 c0 -5 -4 -10 -10 -10 -5
0 -10 5 -10 10 0 6 5 10 10 10 6 0 10 -4 10 -10z m2598 -47 c6 -19 -25 -16
-32 3 -4 11 -1 14 11 12 9 -2 18 -9 21 -15z m890 -51 c2 -7 -3 -12 -12 -12 -9
0 -16 7 -16 16 0 17 22 14 28 -4z m902 -52 c0 -21 -25 -4 -28 20 -4 21 -2 22
12 7 9 -8 16 -21 16 -27z m-4320 -66 c0 -8 11 -15 28 -15 24 -2 24 -2 4 -6
-13 -3 -30 1 -38 7 -16 14 -20 45 -4 35 6 -3 10 -13 10 -21z m2862 -30 c-12
-22 -23 -4 -15 25 5 20 7 21 15 7 5 -9 5 -23 0 -32z m-2674 -32 l4 -24 -21 21
c-26 26 -26 34 -3 29 9 -2 18 -14 20 -26z m3810 -14 c-2 -6 -10 -14 -16 -16
-7 -2 -10 2 -6 12 7 18 28 22 22 4z m-3744 -54 c4 -10 1 -14 -6 -12 -15 5 -23
28 -10 28 5 0 13 -7 16 -16z m16 -44 c0 -5 -2 -10 -4 -10 -3 0 -8 5 -11 10 -3
6 -1 10 4 10 6 0 11 -4 11 -10z m-40 -90 c0 -5 -4 -10 -10 -10 -5 0 -10 5 -10
10 0 6 5 10 10 10 6 0 10 -4 10 -10z m207 -176 c-3 -3 -12 -4 -19 -1 -8 3 -5
6 6 6 11 1 17 -2 13 -5z m3793 -4 c0 -5 -4 -10 -10 -10 -5 0 -10 5 -10 10 0 6
5 10 10 10 6 0 10 -4 10 -10z m1277 -46 c-3 -3 -12 -4 -19 -1 -8 3 -5 6 6 6
11 1 17 -2 13 -5z m-5077 -115 c0 -10 -4 -19 -10 -19 -5 0 -10 4 -10 9 0 5 -3
17 -6 25 -5 12 -2 15 10 10 9 -3 16 -15 16 -25z m610 -139 c0 -11 -2 -20 -5
-20 -2 0 -9 9 -15 20 -9 16 -8 20 5 20 8 0 15 -9 15 -20z m48 -17 c2 -8 -5
-13 -17 -13 -12 0 -21 6 -21 16 0 18 31 15 38 -3z m4412 -18 c0 -8 -9 -15 -20
-15 -22 0 -27 15 -7 23 21 9 27 7 27 -8z m-4376 -17 c8 -33 -5 -38 -39 -17
-21 13 -25 19 -12 19 9 0 17 5 17 10 0 20 28 10 34 -12z m41 -34 c13 -5 14 -8
3 -15 -20 -13 19 -12 43 1 16 9 19 7 19 -14 0 -20 -4 -24 -17 -20 -15 5 -16 4
-3 -5 8 -6 21 -11 28 -11 6 0 20 -8 30 -18 55 -57 50 -71 -8 -22 -19 16 -43
30 -53 30 -10 0 -20 7 -23 15 -4 8 -12 15 -20 15 -8 0 -14 7 -14 15 0 8 -4 15
-10 15 -5 0 -10 5 -10 10 0 12 11 13 35 4z m178 -101 c-3 -7 -10 -13 -17 -13
-13 0 -38 49 -31 61 8 12 53 -34 48 -48z m47 -43 c7 -13 7 -20 1 -20 -6 0 -15
9 -21 20 -7 13 -7 20 -1 20 6 0 15 -9 21 -20z m-50 -5 c0 -8 -4 -15 -10 -15
-5 0 -10 7 -10 15 0 8 5 15 10 15 6 0 10 -7 10 -15z m64 -40 c-4 -8 -1 -22 6
-30 8 -9 8 -15 2 -15 -13 0 -26 36 -17 50 9 15 15 12 9 -5z m46 -25 c0 -5 -5
-10 -11 -10 -5 0 -7 5 -4 10 3 6 8 10 11 10 2 0 4 -4 4 -10z m27 -36 c-3 -3
-12 -4 -19 -1 -8 3 -5 6 6 6 11 1 17 -2 13 -5z m227 -170 c3 -8 2 -12 -4 -9
-6 3 -10 10 -10 16 0 14 7 11 14 -7z m3683 -456 c-3 -8 -6 -5 -6 6 -1 11 2 17
5 13 3 -3 4 -12 1 -19z m-3947 -58 c0 -5 -7 -10 -15 -10 -8 0 -15 5 -15 10 0
6 7 10 15 10 8 0 15 -4 15 -10z m80 -32 c0 -7 -5 -20 -10 -28 -8 -12 -10 -9
-10 13 0 15 5 27 10 27 6 0 10 -6 10 -12z m4588 -408 c-3 -33 -11 -31 -15 5
-2 14 1 25 7 25 6 0 9 -13 8 -30z m-95 -87 c3 -15 1 -36 -3 -47 -7 -18 -9 -16
-9 11 -1 17 -6 44 -11 59 -9 23 -8 25 4 15 7 -6 16 -24 19 -38z m-26 -95 c-3
-7 -5 -2 -5 12 0 14 2 19 5 13 2 -7 2 -19 0 -25z m33 -8 c0 -5 -5 -10 -10 -10
-6 0 -15 -10 -20 -22 -7 -18 -9 -19 -9 -5 -1 18 18 46 32 47 4 0 7 -4 7 -10z
m-63 -52 c-3 -7 -5 -2 -5 12 0 14 2 19 5 13 2 -7 2 -19 0 -25z m57 -73 c3 -8
1 -15 -4 -15 -6 0 -10 7 -10 15 0 8 2 15 4 15 2 0 6 -7 10 -15z m-141 -75 c3
-11 1 -18 -4 -14 -5 3 -9 12 -9 20 0 20 7 17 13 -6z m31 4 c3 -8 2 -12 -4 -9
-6 3 -10 10 -10 16 0 14 7 11 14 -7z m60 0 c3 -8 2 -12 -4 -9 -6 3 -10 10 -10
16 0 14 7 11 14 -7z m-34 -49 c0 -8 -4 -15 -10 -15 -5 0 -10 7 -10 15 0 8 5
15 10 15 6 0 10 -7 10 -15z m-59 -38 c-10 -9 -11 -8 -5 6 3 10 9 15 12 12 3
-3 0 -11 -7 -18z m-61 -107 c0 -11 -4 -20 -10 -20 -5 0 -10 9 -10 20 0 11 5
20 10 20 6 0 10 -9 10 -20z m26 -42 c-12 -20 -26 -24 -26 -8 0 6 5 10 10 10 6
0 10 12 11 28 0 23 1 24 8 7 5 -11 3 -28 -3 -37z m-56 -22 c0 -2 -7 -7 -16
-10 -8 -3 -12 -2 -9 4 6 10 25 14 25 6z m-90 -96 c0 -5 -2 -10 -4 -10 -3 0 -8
5 -11 10 -3 6 -1 10 4 10 6 0 11 -4 11 -10z"/>
<path d="M1810 7192 c0 -4 16 -16 35 -26 19 -11 35 -23 35 -28 0 -4 5 -8 10
-8 15 0 7 22 -17 47 -21 22 -63 32 -63 15z"/>
<path d="M1922 7145 c34 -41 66 -67 97 -81 38 -16 44 -14 35 10 -5 14 -9 15
-15 4 -7 -10 -20 -1 -53 35 -24 26 -51 47 -60 47 -14 0 -15 -3 -4 -15z"/>
<path d="M1910 7091 c0 -9 24 -21 43 -21 6 0 2 7 -9 15 -22 17 -34 19 -34 6z"/>
<path d="M2255 6978 c11 -6 25 -19 32 -27 11 -15 12 -15 13 0 0 9 -11 21 -25
27 -33 15 -46 15 -20 0z"/>
<path d="M2138 6886 c5 -43 26 -63 74 -68 29 -3 35 -1 26 9 -6 7 -19 13 -28
13 -11 0 -26 15 -37 37 -24 49 -40 53 -35 9z"/>
<path d="M2580 6760 c0 -5 5 -10 11 -10 5 0 7 5 4 10 -3 6 -8 10 -11 10 -2 0
-4 -4 -4 -10z"/>
<path d="M4168 4793 c7 -3 16 -2 19 1 4 3 -2 6 -13 5 -11 0 -14 -3 -6 -6z"/>
<path d="M7203 9333 c-24 -8 -13 -23 17 -23 17 0 30 4 30 9 0 11 -30 19 -47
14z"/>
<path d="M7806 9215 c10 -8 28 -14 39 -14 14 0 10 4 -14 14 -42 19 -50 19 -25
0z"/>
<path d="M7875 9210 c-4 -6 3 -10 14 -10 25 0 27 6 6 13 -8 4 -17 2 -20 -3z"/>
<path d="M8150 9160 c0 -5 5 -10 10 -10 6 0 10 5 10 10 0 6 -4 10 -10 10 -5 0
-10 -4 -10 -10z"/>
<path d="M8005 9130 c3 -5 8 -10 11 -10 2 0 4 5 4 10 0 6 -5 10 -11 10 -5 0
-7 -4 -4 -10z"/>
<path d="M6700 9092 c0 -7 -8 -12 -17 -12 -15 0 -16 -2 -3 -10 10 -6 17 -4 23
6 5 9 6 18 3 21 -3 4 -6 1 -6 -5z"/>
<path d="M6650 9045 c0 -8 5 -15 10 -15 6 0 10 7 10 15 0 8 -4 15 -10 15 -5 0
-10 -7 -10 -15z"/>
<path d="M6388 8903 c6 -2 18 -2 25 0 6 3 1 5 -13 5 -14 0 -19 -2 -12 -5z"/>
<path d="M5930 8676 c0 -19 4 -23 20 -19 11 3 20 14 20 24 0 12 -7 19 -20 19
-14 0 -20 -7 -20 -24z"/>
<path d="M5870 8604 c0 -16 -2 -17 -10 -4 -8 13 -10 12 -10 -2 0 -10 5 -18 10
-18 13 0 25 28 16 37 -3 4 -6 -2 -6 -13z"/>
<path d="M5450 8379 c-10 -18 -9 -20 7 -17 10 2 19 11 21 21 5 24 -15 21 -28
-4z"/>
<path d="M5590 8384 c0 -5 -14 -15 -32 -22 -36 -13 -32 -28 5 -18 24 6 43 33
32 44 -3 3 -5 1 -5 -4z"/>
<path d="M5420 8190 c0 -5 -6 -7 -13 -4 -7 2 -24 0 -38 -5 -22 -9 -21 -10 12
-10 21 -1 42 5 49 14 9 10 9 15 1 15 -6 0 -11 -4 -11 -10z"/>
<path d="M5368 8119 c15 -6 30 -5 40 1 13 7 8 9 -23 9 -35 0 -37 -1 -17 -10z"/>
<path d="M1019 8103 c-40 -4 -69 -29 -72 -61 0 -12 -6 -18 -14 -15 -7 3 -13 1
-13 -5 0 -5 -29 -13 -65 -17 -36 -3 -65 -11 -65 -16 0 -5 -13 -9 -30 -9 -16 0
-30 5 -30 10 0 24 -29 7 -35 -20 -6 -26 -22 -40 -82 -75 -1 0 0 -11 4 -23 4
-17 13 -22 38 -22 43 0 105 27 105 45 0 8 3 15 8 15 4 0 17 3 29 6 17 5 22 1
25 -18 2 -15 11 -24 26 -26 12 -2 22 -9 22 -15 0 -9 2 -9 8 -1 4 7 16 13 27
15 27 6 25 31 -3 45 l-23 11 22 6 c16 4 20 11 16 27 -4 15 -1 21 11 19 34 -3
42 1 42 24 0 31 27 44 87 41 50 -2 52 -1 42 18 -9 17 -8 19 10 13 12 -3 31 -3
43 1 l21 6 -24 14 c-23 13 -56 15 -130 7z m-72 -115 c-3 -8 -6 -5 -6 6 -1 11
2 17 5 13 3 -3 4 -12 1 -19z"/>
<path d="M1992 7901 c7 -12 21 -21 30 -21 23 0 23 16 1 24 -10 3 -24 9 -31 12
-11 5 -11 3 0 -15z"/>
<path d="M4865 7840 c-10 -11 -15 -26 -12 -34 4 -9 -4 -21 -19 -30 -13 -9 -24
-23 -24 -31 0 -18 16 -20 23 -2 4 9 8 8 16 -3 8 -11 11 -11 11 -2 0 7 12 17
27 23 24 9 25 11 11 26 -12 11 -14 22 -8 39 12 31 -3 39 -25 14z"/>
<path d="M2180 7820 c0 -5 18 -10 40 -10 22 0 40 5 40 10 0 6 -18 10 -40 10
-22 0 -40 -4 -40 -10z"/>
<path d="M2410 7734 c0 -8 4 -13 9 -9 5 3 12 1 16 -5 4 -6 11 -8 16 -5 10 7
-14 35 -30 35 -6 0 -11 -7 -11 -16z"/>
<path d="M2801 7583 c-1 -12 4 -25 9 -28 12 -7 12 2 0 30 -8 19 -9 19 -9 -2z"/>
<path d="M246 7487 c-15 -19 -17 -35 -13 -117 3 -57 9 -96 16 -98 6 -2 11 -16
11 -31 0 -15 4 -31 9 -36 5 -6 14 -28 21 -50 7 -22 26 -65 42 -96 15 -31 28
-61 28 -67 0 -6 3 -12 8 -14 12 -5 52 -85 52 -105 0 -10 7 -29 16 -41 9 -13
14 -34 12 -47 -4 -16 -1 -22 9 -18 9 4 11 0 7 -11 -5 -12 0 -19 15 -23 28 -7
27 -21 -1 -25 -20 -3 -18 -6 15 -22 21 -11 43 -30 48 -43 5 -13 16 -26 24 -29
8 -4 15 -12 15 -18 0 -19 53 -85 68 -86 7 0 12 -11 10 -27 -2 -35 15 -68 59
-113 18 -19 33 -38 33 -41 0 -8 58 -39 72 -39 5 0 6 5 3 10 -15 24 13 6 48
-30 20 -22 45 -40 56 -40 10 0 25 -8 33 -17 17 -19 48 -103 48 -128 0 -8 7
-15 15 -15 8 0 15 -6 15 -13 0 -7 9 -13 20 -13 13 0 19 5 15 14 -3 7 -5 16 -5
18 0 2 -7 4 -15 4 -8 0 -15 6 -15 14 0 8 -6 17 -13 19 -9 4 -9 6 1 6 15 1 17
111 2 111 -6 0 -13 8 -17 18 -3 9 -16 30 -27 47 -12 16 -27 40 -34 54 -11 21
-10 22 3 11 8 -7 21 -24 28 -39 6 -14 22 -30 35 -36 13 -5 25 -20 29 -32 6
-26 23 -31 23 -8 0 8 -4 15 -9 15 -5 0 -12 9 -16 19 -3 10 -15 21 -25 24 -11
3 -20 14 -20 24 0 11 -11 30 -25 43 -14 13 -25 28 -25 34 0 6 -27 40 -61 76
-33 36 -64 75 -69 88 -6 14 -18 22 -35 22 -26 0 -34 15 -12 23 6 2 4 3 -5 2
-19 -3 -67 47 -51 52 6 2 -31 47 -82 98 -52 52 -96 104 -100 115 -3 11 -13 20
-21 20 -8 0 -14 4 -14 9 0 5 -12 11 -27 13 -25 3 -49 32 -86 108 -6 14 -17 31
-24 38 -7 7 -16 25 -20 40 -3 15 -14 37 -24 50 -10 13 -21 36 -24 52 -4 17
-11 30 -16 30 -6 0 -9 6 -8 13 4 23 -13 107 -22 107 -5 0 -9 20 -9 45 0 25 4
45 9 45 7 0 23 51 17 57 -1 1 -10 -8 -20 -20z m254 -597 c0 -5 -7 -10 -15 -10
-8 0 -15 5 -15 10 0 6 7 10 15 10 8 0 15 -4 15 -10z m170 -170 c0 -5 10 -18
22 -30 12 -11 19 -20 15 -20 -8 0 -57 46 -57 54 0 3 5 6 10 6 6 0 10 -4 10
-10z m-20 -120 c0 -5 -4 -10 -10 -10 -5 0 -10 5 -10 10 0 6 5 10 10 10 6 0 10
-4 10 -10z m35 -150 c3 -5 1 -10 -4 -10 -6 0 -11 5 -11 10 0 6 2 10 4 10 3 0
8 -4 11 -10z m199 -126 c3 -9 -7 -3 -24 13 -16 15 -30 29 -30 31 0 8 49 -32
54 -44z m-94 26 c0 -5 -6 -10 -14 -10 -8 0 -18 5 -21 10 -3 6 3 10 14 10 12 0
21 -4 21 -10z m138 -105 c-3 -3 -9 2 -12 12 -6 14 -5 15 5 6 7 -7 10 -15 7
-18z"/>
<path d="M4716 7495 c-3 -8 -1 -15 4 -15 6 0 10 7 10 15 0 8 -2 15 -4 15 -2 0
-6 -7 -10 -15z"/>
<path d="M470 7350 c0 -5 7 -10 15 -10 8 0 15 5 15 10 0 6 -7 10 -15 10 -8 0
-15 -4 -15 -10z"/>
<path d="M3510 7350 c0 -5 5 -10 10 -10 6 0 10 5 10 10 0 6 -4 10 -10 10 -5 0
-10 -4 -10 -10z"/>
<path d="M630 7120 c0 -5 7 -10 15 -10 8 0 15 5 15 10 0 6 -7 10 -15 10 -8 0
-15 -4 -15 -10z"/>
<path d="M760 6960 c0 -5 7 -10 15 -10 7 0 19 -8 24 -17 6 -10 10 -13 10 -8 0
15 -25 45 -38 45 -6 0 -11 -4 -11 -10z"/>
<path d="M875 6878 c13 -43 64 -64 57 -23 -5 24 -27 45 -47 45 -12 0 -15 -6
-10 -22z"/>
<path d="M602 6522 c14 -17 28 -37 31 -44 2 -7 8 -10 12 -6 4 4 0 14 -9 23 -9
9 -16 20 -16 25 0 5 -10 15 -22 21 -21 11 -20 10 4 -19z"/>
<path d="M1080 6210 c0 -5 5 -10 11 -10 5 0 7 5 4 10 -3 6 -8 10 -11 10 -2 0
-4 -4 -4 -10z"/>
<path d="M950 6165 c0 -12 32 -67 36 -62 7 6 -13 54 -25 62 -6 3 -11 3 -11 0z"/>
<path d="M1918 4863 c7 -3 16 -2 19 1 4 3 -2 6 -13 5 -11 0 -14 -3 -6 -6z"/>
<path d="M1910 4715 c0 -8 5 -15 10 -15 6 0 10 -13 10 -30 0 -20 5 -30 15 -30
8 0 15 -9 15 -20 0 -11 5 -20 10 -20 6 0 10 -7 10 -15 0 -9 6 -12 17 -8 11 4
14 3 9 -5 -4 -7 -2 -12 3 -12 16 0 14 11 -9 48 -11 18 -20 45 -20 60 0 15 -7
35 -14 45 -16 21 -56 23 -56 2z"/>
<path d="M1770 4630 c0 -5 5 -10 11 -10 5 0 7 5 4 10 -3 6 -8 10 -11 10 -2 0
-4 -4 -4 -10z"/>
<path d="M2030 4531 c0 -11 5 -23 10 -26 6 -3 10 3 10 14 0 11 -4 23 -10 26
-5 3 -10 -3 -10 -14z"/>
<path d="M2032 4370 c0 -14 2 -19 5 -12 2 6 2 18 0 25 -3 6 -5 1 -5 -13z"/>
<path d="M2608 4023 c7 -3 16 -2 19 1 4 3 -2 6 -13 5 -11 0 -14 -3 -6 -6z"/>
<path d="M2710 3887 c0 -10 8 -17 18 -17 9 0 13 4 7 8 -5 4 -13 11 -17 16 -5
5 -8 2 -8 -7z"/>
<path d="M3130 3536 c0 -2 7 -7 16 -10 8 -3 12 -2 9 4 -6 10 -25 14 -25 6z"/>
<path d="M8392 2020 c0 -14 2 -19 5 -12 2 6 2 18 0 25 -3 6 -5 1 -5 -13z"/>
<path d="M8297 1903 c-12 -12 -7 -22 8 -17 8 4 15 10 15 15 0 11 -14 12 -23 2z"/>
<path d="M8310 1843 c0 -18 2 -33 4 -33 9 0 13 39 5 51 -6 10 -9 4 -9 -18z"/>
<path d="M8286 1801 c-4 -6 -2 -11 3 -11 6 0 11 -7 11 -15 0 -21 20 -19 21 3
0 14 2 14 9 -3 8 -19 9 -19 9 4 1 18 -3 22 -16 17 -9 -4 -20 -2 -23 5 -6 8 -9
8 -14 0z"/>
<path d="M8230 1640 c0 -5 9 -10 20 -10 11 0 20 5 20 10 0 6 -9 10 -20 10 -11
0 -20 -4 -20 -10z"/>
<path d="M8181 1624 c0 -11 3 -14 6 -6 3 7 2 16 -1 19 -3 4 -6 -2 -5 -13z"/>
<path d="M8182 1531 c1 -16 5 -28 9 -26 6 5 0 55 -7 55 -3 0 -3 -13 -2 -29z"/>
<path d="M8238 1523 c6 -2 18 -2 25 0 6 3 1 5 -13 5 -14 0 -19 -2 -12 -5z"/>
<path d="M8160 1481 c0 -11 4 -22 9 -25 4 -3 6 6 3 19 -5 30 -12 33 -12 6z"/>
<path d="M8137 1448 c-2 -7 -1 -22 4 -33 6 -16 8 -14 8 13 1 33 -4 41 -12 20z"/>
<path d="M8177 1419 c4 -13 8 -18 11 -10 2 7 -1 18 -6 23 -8 8 -9 4 -5 -13z"/>
<path d="M8100 1375 c0 -8 5 -15 10 -15 6 0 10 7 10 15 0 8 -4 15 -10 15 -5 0
-10 -7 -10 -15z"/>
<path d="M8020 1324 c0 -8 5 -12 10 -9 6 3 10 10 10 16 0 5 -4 9 -10 9 -5 0
-10 -7 -10 -16z"/>
</g>
</svg>
